<svg xmlns="http://www.w3.org/2000/svg" width="24" height="24" viewBox="0 0 24 24">
    <path data-name="사각형 447" style="fill:none" d="M0 0h24v24H0z"/>
    <g data-name="그룹 339">
        <path data-name="패스 160" d="M14.776 3.795H2.213A1.682 1.682 0 0 1 .5 2.147 1.682 1.682 0 0 1 2.213.5h12.563a1.682 1.682 0 0 1 1.714 1.647 1.682 1.682 0 0 1-1.714 1.648z" transform="translate(3.506 4.305)" style="stroke:#002053;stroke-linecap:round;stroke-linejoin:round;stroke-width:1.5px;fill:none"/>
        <path data-name="패스 161" d="m1.09 4.268 4.072 4.3a1.32 1.32 0 0 1 .3.849v5.051A1.18 1.18 0 0 0 6.845 15.7l3.5-.8a1.235 1.235 0 0 0 .915-1.23V9.421a1.317 1.317 0 0 1 .3-.852l4.225-4.251" transform="translate(3.526 3.47)" style="stroke:#002053;stroke-linecap:round;stroke-linejoin:round;stroke-width:1.5px;fill:none"/>
    </g>
</svg>
