<svg xmlns="http://www.w3.org/2000/svg" width="32" height="32" viewBox="0 0 32 32">
    <g data-name="그룹 56">
        <path data-name="사각형 67" style="fill:none" d="M0 0h32v32H0z"/>
        <g data-name="그룹 52" transform="translate(2 4)">
            <rect data-name="사각형 9" width="24" height="2" rx="1" transform="translate(2)" style="fill:#002053"/>
            <rect data-name="사각형 10" width="24" height="2" rx="1" transform="translate(2 9.947)" style="fill:#002053"/>
            <rect data-name="사각형 68" width="6" height="2" rx="1" transform="translate(2 19.893)" style="fill:#002053"/>
            <path data-name="패스 148" d="M3.539.129a3.017 3.017 0 0 0 3.129-3.293 3.007 3.007 0 0 0-3.129-3.281A3 3 0 0 0 .422-3.164 3.008 3.008 0 0 0 3.539.129zm.012-1.348c-.9 0-1.371-.832-1.371-1.945s.469-1.957 1.371-1.957S4.9-4.289 4.9-3.164s-.459 1.945-1.349 1.945zm7.594-5.145H9.879v-.386c0-.527.293-.75.855-.75.094 0 .281.012.527.035v-1.312a4.5 4.5 0 0 0-1.031-.105 1.881 1.881 0 0 0-2.085 2.038v.48h-.9v1.3h.9V0h1.734v-5.062h1.266zm4.406 0h-1.266v-.386c0-.527.293-.75.855-.75.094 0 .281.012.527.035v-1.312a4.5 4.5 0 0 0-1.031-.105 1.881 1.881 0 0 0-2.086 2.039v.48h-.9v1.3h.9V0h1.734v-5.062h1.266z" transform="translate(10 24)" style="fill:#002053"/>
        </g>
    </g>
</svg>
