<svg xmlns="http://www.w3.org/2000/svg" width="24" height="24" viewBox="0 0 24 24">
    <defs>
        <clipPath id="kiff2bleva">
            <path data-name="사각형 186" style="fill:none" d="M0 0h22v22H0z"/>
        </clipPath>
    </defs>
    <path data-name="사각형 38" style="fill:none" d="M0 0h24v24H0z"/>
    <g data-name="그룹 134" transform="translate(1 1)" style="clip-path:url(#kiff2bleva)">
        <path data-name="패스 94" d="m8 19.97-.948.511a2.072 2.072 0 0 1-2.99-2.229l.57-3.414a2.15 2.15 0 0 0-.592-1.872l-2.415-2.418A2.13 2.13 0 0 1 2.767 6.94l3.34-.5a2.068 2.068 0 0 0 1.552-1.155l1.493-3.106a2.038 2.038 0 0 1 3.7 0l1.494 3.106a2.065 2.065 0 0 0 1.552 1.157l3.339.5a2.13 2.13 0 0 1 1.143 3.608l-.754.754" style="stroke:#fff;stroke-linecap:round;stroke-linejoin:round;stroke-width:2px;fill:none"/>
        <path data-name="패스 95" d="m17.62 15.109.57 3.414a2.073 2.073 0 0 1-2.99 2.23l-2.987-1.612" style="stroke:#fff;stroke-linecap:round;stroke-linejoin:round;stroke-width:2px;fill:none"/>
    </g>
</svg>
