<svg version="1.2" xmlns="http://www.w3.org/2000/svg" viewBox="0 0 168 31" width="168" height="31">
<style type="text/css">
	.st0{fill:#7371FE;}
	.st1{fill:#FECB19;}
</style>
<g>
	<g>
		<path fill="#FFFFFF" d="M38.7,13.2c0.6-1.1,1.5-1.9,2.6-2.6c1.1-0.6,2.3-0.9,3.6-0.9c1.6,0,2.9,0.4,4.1,1.2c1.2,0.8,2,1.9,2.5,3.3
			h-3.2c-0.3-0.7-0.8-1.2-1.4-1.5c-0.6-0.3-1.3-0.5-2-0.5c-0.8,0-1.5,0.2-2.2,0.6c-0.6,0.4-1.1,0.9-1.5,1.6
			c-0.4,0.7-0.5,1.5-0.5,2.5c0,0.9,0.2,1.7,0.5,2.4c0.4,0.7,0.9,1.2,1.5,1.6c0.6,0.4,1.4,0.6,2.2,0.6c0.8,0,1.4-0.2,2-0.5
			c0.6-0.3,1-0.8,1.4-1.5h3.2c-0.5,1.4-1.3,2.6-2.5,3.4s-2.6,1.2-4.1,1.2c-1.3,0-2.6-0.3-3.6-0.9c-1.1-0.6-1.9-1.5-2.6-2.5
			c-0.6-1.1-0.9-2.3-0.9-3.7C37.7,15.5,38,14.3,38.7,13.2z"/>
		<path fill="#FFFFFF" d="M53.7,15.3c0.4-0.9,1.1-1.5,1.8-2c0.8-0.5,1.6-0.7,2.6-0.7c0.8,0,1.6,0.2,2.2,0.5c0.6,0.3,1.1,0.8,1.5,1.3
			v-1.6h2.8v11.2h-2.8v-1.6c-0.4,0.5-0.9,1-1.5,1.3c-0.6,0.3-1.4,0.5-2.2,0.5c-0.9,0-1.8-0.2-2.6-0.7c-0.8-0.5-1.4-1.2-1.8-2
			c-0.5-0.9-0.7-1.9-0.7-3C53.1,17.2,53.3,16.2,53.7,15.3z M61.4,16.6c-0.3-0.5-0.6-0.9-1.1-1.1c-0.5-0.3-0.9-0.4-1.5-0.4
			c-0.5,0-1,0.1-1.5,0.4c-0.4,0.3-0.8,0.6-1.1,1.1c-0.3,0.5-0.4,1.1-0.4,1.7c0,0.7,0.1,1.3,0.4,1.8c0.3,0.5,0.6,0.9,1.1,1.2
			c0.4,0.3,0.9,0.4,1.4,0.4c0.5,0,1-0.1,1.5-0.4c0.5-0.3,0.8-0.6,1.1-1.1c0.3-0.5,0.4-1.1,0.4-1.8C61.8,17.7,61.7,17.1,61.4,16.6z"
			/>
		<path fill="#FFFFFF" d="M76.7,13.9c0.8,0.8,1.2,2,1.2,3.5v6.5h-2.8v-6.2c0-0.9-0.2-1.6-0.7-2c-0.4-0.5-1-0.7-1.8-0.7
			c-0.8,0-1.4,0.2-1.8,0.7c-0.5,0.5-0.7,1.2-0.7,2v6.2h-2.8V12.8h2.8v1.4c0.4-0.5,0.9-0.9,1.4-1.1c0.6-0.3,1.2-0.4,1.9-0.4
			C74.8,12.6,75.9,13,76.7,13.9z"/>
		<path fill="#FFFFFF" d="M80.5,15.3c0.4-0.9,1.1-1.5,1.8-2c0.8-0.5,1.6-0.7,2.6-0.7c0.8,0,1.6,0.2,2.2,0.5c0.6,0.3,1.1,0.8,1.5,1.3
			v-1.6h2.8v11.2h-2.8v-1.6c-0.4,0.5-0.9,1-1.5,1.3c-0.6,0.3-1.4,0.5-2.2,0.5c-0.9,0-1.8-0.2-2.6-0.7c-0.8-0.5-1.4-1.2-1.8-2
			c-0.5-0.9-0.7-1.9-0.7-3C79.8,17.2,80,16.2,80.5,15.3z M88.2,16.6c-0.3-0.5-0.6-0.9-1.1-1.1c-0.5-0.3-0.9-0.4-1.5-0.4
			c-0.5,0-1,0.1-1.5,0.4c-0.4,0.3-0.8,0.6-1.1,1.1c-0.3,0.5-0.4,1.1-0.4,1.7c0,0.7,0.1,1.3,0.4,1.8c0.3,0.5,0.6,0.9,1.1,1.2
			c0.4,0.3,0.9,0.4,1.4,0.4c0.5,0,1-0.1,1.5-0.4c0.5-0.3,0.8-0.6,1.1-1.1c0.3-0.5,0.4-1.1,0.4-1.8C88.6,17.7,88.5,17.1,88.2,16.6z"
			/>
		<path fill="#FFFFFF" d="M96.9,9v14.9h-2.8V9H96.9z"/>
		<path fill="#FFFFFF" d="M113,9.9v2.3h-5.9v3.6h4.5V18h-4.5v5.9h-2.8V9.9H113z"/>
		<path fill="#FFFFFF" d="M119.1,13.1c0.6-0.3,1.3-0.5,2-0.5v3h-0.7c-0.9,0-1.6,0.2-2,0.6c-0.5,0.4-0.7,1.1-0.7,2.2v5.6h-2.8V12.8h2.8
			v1.7C118,13.9,118.5,13.5,119.1,13.1z"/>
		<path fill="#FFFFFF" d="M122.9,15.3c0.4-0.9,1.1-1.5,1.8-2c0.8-0.5,1.6-0.7,2.6-0.7c0.8,0,1.6,0.2,2.2,0.5c0.6,0.3,1.1,0.8,1.5,1.3
			v-1.6h2.8v11.2H131v-1.6c-0.4,0.5-0.9,1-1.5,1.3c-0.6,0.3-1.4,0.5-2.2,0.5c-0.9,0-1.8-0.2-2.6-0.7c-0.8-0.5-1.4-1.2-1.8-2
			c-0.5-0.9-0.7-1.9-0.7-3C122.2,17.2,122.4,16.2,122.9,15.3z M130.6,16.6c-0.3-0.5-0.6-0.9-1.1-1.1c-0.5-0.3-0.9-0.4-1.5-0.4
			c-0.5,0-1,0.1-1.5,0.4c-0.4,0.3-0.8,0.6-1.1,1.1c-0.3,0.5-0.4,1.1-0.4,1.7c0,0.7,0.1,1.3,0.4,1.8c0.3,0.5,0.6,0.9,1.1,1.2
			c0.4,0.3,0.9,0.4,1.4,0.4c0.5,0,1-0.1,1.5-0.4c0.5-0.3,0.8-0.6,1.1-1.1c0.3-0.5,0.4-1.1,0.4-1.8C131,17.7,130.8,17.1,130.6,16.6z"
			/>
		<path fill="#FFFFFF" d="M153.6,13.9c0.8,0.8,1.3,2,1.3,3.5v6.5h-2.8v-6.2c0-0.9-0.2-1.5-0.7-2c-0.4-0.5-1-0.7-1.8-0.7
			c-0.8,0-1.4,0.2-1.8,0.7c-0.4,0.5-0.7,1.1-0.7,2v6.2h-2.8v-6.2c0-0.9-0.2-1.5-0.7-2c-0.4-0.5-1-0.7-1.8-0.7
			c-0.8,0-1.4,0.2-1.8,0.7c-0.5,0.5-0.7,1.1-0.7,2v6.2h-2.8V12.8h2.8v1.3c0.4-0.5,0.8-0.8,1.4-1.1c0.6-0.3,1.2-0.4,1.9-0.4
			c0.9,0,1.7,0.2,2.3,0.6c0.7,0.4,1.2,0.9,1.6,1.6c0.4-0.6,0.9-1.2,1.6-1.6c0.7-0.4,1.4-0.6,2.2-0.6C151.7,12.6,152.8,13,153.6,13.9
			z"/>
		<path fill="#FFFFFF" d="M167.8,19.2h-8.2c0.1,0.8,0.3,1.4,0.8,1.9c0.5,0.5,1.1,0.7,1.8,0.7c1,0,1.8-0.4,2.2-1.3h3
			c-0.3,1.1-0.9,2-1.9,2.6c-0.9,0.7-2,1-3.4,1c-1.1,0-2-0.2-2.9-0.7c-0.9-0.5-1.5-1.2-2-2c-0.5-0.9-0.7-1.9-0.7-3
			c0-1.2,0.2-2.2,0.7-3c0.5-0.9,1.1-1.5,2-2c0.8-0.5,1.8-0.7,2.9-0.7c1.1,0,2,0.2,2.8,0.7c0.8,0.5,1.5,1.1,2,1.9
			c0.5,0.8,0.7,1.8,0.7,2.9C167.8,18.5,167.8,18.9,167.8,19.2z M164.9,17.3c0-0.7-0.3-1.3-0.8-1.7c-0.5-0.4-1.1-0.7-1.9-0.7
			c-0.7,0-1.3,0.2-1.8,0.6c-0.5,0.4-0.8,1-0.9,1.8H164.9z"/>
	</g>
	<g>
		<path fill="#FFFFFF" d="M7,22.4V10.2l17.5-5.6v5.8l5.4-1.7V0.5H6.7c-3.8,0-6.9,3.1-6.9,6.9v16.4c0,3.8,3.1,6.9,6.9,6.9h23.2v-9.7
			l-17.4,5.6v-5.8L7,22.4z"/>
		<polygon fill="#FECB19" points="7,10.2 7,22.4 12.5,20.7 12.5,14.2 24.5,10.3 24.5,4.6 		"/>
	</g>
</g>
</svg>
