<svg version="1.2" xmlns="http://www.w3.org/2000/svg" viewBox="0 0 184 31" width="184" height="31">
<g>
	<path fill="#ffffff" d="M46.3,12.6c0.7-0.4,1.4-0.6,2.3-0.6c0.8,0,1.5,0.2,2.1,0.5c0.6,0.3,1.1,0.9,1.4,1.6h3.4
		c-0.5-1.5-1.3-2.6-2.6-3.4c-1.2-0.8-2.6-1.2-4.3-1.2c-1.4,0-2.6,0.3-3.8,0.9c-1.1,0.6-2,1.5-2.6,2.6c-0.7,1.1-1,2.4-1,3.8
		c0,1.4,0.3,2.7,1,3.8c0.6,1.1,1.5,2,2.6,2.6c1.1,0.6,2.4,0.9,3.8,0.9c1.6,0,3.1-0.4,4.3-1.2c1.2-0.8,2.1-2,2.6-3.5h-3.4
		c-0.3,0.7-0.8,1.2-1.4,1.6c-0.6,0.4-1.3,0.5-2.1,0.5c-0.9,0-1.6-0.2-2.3-0.6c-0.7-0.4-1.2-1-1.5-1.7c-0.4-0.7-0.6-1.6-0.6-2.5
		c0-1,0.2-1.8,0.6-2.5C45.1,13.6,45.7,13,46.3,12.6z"/>
	<path fill="#ffffff" d="M66.2,12.6v1.6c-0.4-0.5-0.9-1-1.6-1.3c-0.6-0.3-1.4-0.5-2.3-0.5c-0.9,0-1.9,0.2-2.7,0.7
		c-0.8,0.5-1.4,1.2-1.9,2.1c-0.5,0.9-0.7,1.9-0.7,3.1c0,1.2,0.2,2.2,0.7,3.1c0.5,0.9,1.1,1.6,1.9,2.1c0.8,0.5,1.7,0.7,2.7,0.7
		c0.9,0,1.6-0.2,2.3-0.5c0.7-0.4,1.2-0.8,1.6-1.3v1.7h2.9V12.6L66.2,12.6L66.2,12.6z M65.8,20.2c-0.3,0.5-0.7,0.9-1.1,1.2
		c-0.5,0.3-1,0.4-1.5,0.4c-0.5,0-1-0.1-1.5-0.4c-0.5-0.3-0.8-0.7-1.1-1.2c-0.3-0.5-0.4-1.1-0.4-1.8c0-0.7,0.1-1.3,0.4-1.8
		c0.3-0.5,0.7-0.9,1.1-1.1c0.5-0.3,1-0.4,1.5-0.4c0.6,0,1.1,0.1,1.5,0.4c0.5,0.3,0.9,0.7,1.1,1.2c0.3,0.5,0.4,1.1,0.4,1.8
		C66.2,19,66.1,19.6,65.8,20.2z"/>
	<path fill="#ffffff" d="M78.3,12.4c-0.7,0-1.4,0.1-2,0.4c-0.6,0.3-1.1,0.7-1.5,1.2v-1.4h-2.9v11.5h2.9v-6.4c0-0.9,0.2-1.6,0.7-2.1
		c0.5-0.5,1.1-0.7,1.9-0.7c0.8,0,1.4,0.2,1.9,0.7c0.5,0.5,0.7,1.2,0.7,2.1v6.4h2.9v-6.7c0-1.6-0.4-2.8-1.3-3.6
		C80.8,12.9,79.7,12.4,78.3,12.4z"/>
	<path fill="#ffffff" d="M93.9,12.6v1.6c-0.4-0.5-0.9-1-1.6-1.3c-0.6-0.3-1.4-0.5-2.3-0.5c-1,0-1.9,0.2-2.7,0.7
		c-0.8,0.5-1.4,1.2-1.9,2.1c-0.5,0.9-0.7,1.9-0.7,3.1c0,1.2,0.2,2.2,0.7,3.1c0.5,0.9,1.1,1.6,1.9,2.1c0.8,0.5,1.7,0.7,2.7,0.7
		c0.9,0,1.6-0.2,2.3-0.5c0.7-0.4,1.2-0.8,1.6-1.3v1.7h2.9V12.6L93.9,12.6L93.9,12.6z M93.5,20.2c-0.3,0.5-0.7,0.9-1.1,1.2
		c-0.5,0.3-1,0.4-1.5,0.4c-0.5,0-1-0.1-1.5-0.4c-0.5-0.3-0.9-0.7-1.1-1.2c-0.3-0.5-0.4-1.1-0.4-1.8c0-0.7,0.1-1.3,0.4-1.8
		c0.3-0.5,0.7-0.9,1.1-1.1c0.5-0.3,1-0.4,1.5-0.4c0.5,0,1,0.1,1.5,0.4c0.5,0.3,0.8,0.7,1.1,1.2c0.3,0.5,0.4,1.1,0.4,1.8
		C93.9,19,93.8,19.6,93.5,20.2z"/>
	<path fill="#ffffff" d="M176,18.1c0-1.1-0.2-2.1-0.7-3c-0.5-0.8-1.2-1.5-2-2c-0.9-0.5-1.9-0.7-3-0.7c-1.1,0-2.1,0.2-3,0.7
		c-0.9,0.5-1.6,1.2-2,2.1c-0.5,0.9-0.7,2-0.7,3.1c0,1.2,0.2,2.2,0.7,3.1c0.5,0.9,1.2,1.6,2.1,2.1c0.9,0.5,1.9,0.7,3,0.7
		c1.4,0,2.5-0.4,3.5-1.1c0.9-0.7,1.6-1.6,1.9-2.7h-3.1c-0.5,0.9-1.2,1.4-2.3,1.4c-0.8,0-1.4-0.2-1.9-0.7c-0.5-0.5-0.8-1.1-0.9-2h8.4
		C176,18.9,176,18.5,176,18.1z M167.5,17.3c0.1-0.8,0.4-1.4,0.9-1.8c0.5-0.4,1.1-0.7,1.8-0.7c0.8,0,1.4,0.2,1.9,0.7
		c0.5,0.4,0.8,1,0.8,1.8H167.5z"/>
	<rect x="99.6" y="8.7" fill="#ffffff" width="2.9" height="15.4"/>
	<path fill="#ffffff" d="M137.8,12.6v1.6c-0.4-0.5-0.9-1-1.6-1.3c-0.6-0.3-1.4-0.5-2.3-0.5c-0.9,0-1.9,0.2-2.7,0.7
		c-0.8,0.5-1.4,1.2-1.9,2.1c-0.5,0.9-0.7,1.9-0.7,3.1c0,1.2,0.2,2.2,0.7,3.1c0.5,0.9,1.1,1.6,1.9,2.1c0.8,0.5,1.7,0.7,2.7,0.7
		c0.9,0,1.6-0.2,2.3-0.5c0.7-0.4,1.2-0.8,1.6-1.3v1.7h2.9V12.6L137.8,12.6L137.8,12.6z M137.4,20.2c-0.3,0.5-0.7,0.9-1.1,1.2
		c-0.5,0.3-1,0.4-1.5,0.4c-0.5,0-1-0.1-1.5-0.4c-0.5-0.3-0.8-0.7-1.1-1.2c-0.3-0.5-0.4-1.1-0.4-1.8c0-0.7,0.1-1.3,0.4-1.8
		c0.3-0.5,0.7-0.9,1.1-1.1c0.5-0.3,1-0.4,1.5-0.4c0.6,0,1.1,0.1,1.5,0.4c0.5,0.3,0.9,0.7,1.1,1.2c0.3,0.5,0.4,1.1,0.4,1.8
		C137.8,19,137.7,19.6,137.4,20.2z"/>
	<path fill="#ffffff" d="M161.3,13.7c-0.9-0.9-2-1.3-3.4-1.3c-0.8,0-1.6,0.2-2.3,0.6c-0.7,0.4-1.3,0.9-1.6,1.6c-0.4-0.7-1-1.3-1.6-1.6
		c-0.7-0.4-1.5-0.6-2.4-0.6c-0.7,0-1.4,0.1-2,0.4c-0.6,0.3-1.1,0.6-1.4,1.1v-1.4h-2.9v11.5h2.9v-6.4c0-0.9,0.2-1.6,0.7-2.1
		c0.5-0.5,1.1-0.7,1.9-0.7c0.8,0,1.4,0.2,1.9,0.7c0.5,0.5,0.7,1.2,0.7,2.1v6.4h2.9v-6.4c0-0.9,0.2-1.6,0.7-2.1
		c0.5-0.5,1.1-0.7,1.9-0.7c0.8,0,1.4,0.2,1.9,0.7c0.5,0.5,0.7,1.2,0.7,2.1v6.4h2.9v-6.7C162.6,15.8,162.2,14.6,161.3,13.7
		L161.3,13.7z"/>
	<polygon fill="#ffffff" points="110.2,24.1 113.1,24.1 113.1,18 117.8,18 117.8,15.7 113.1,15.7 113.1,11.9 119.2,11.9 119.2,9.6 
		110.2,9.6 	"/>
	<path fill="#ffffff" d="M124.1,14.4v-1.8h-2.9v11.5h2.9v-5.7c0-1.1,0.2-1.8,0.7-2.2c0.5-0.4,1.2-0.6,2.1-0.6h0.8v-3.1
		c-0.8,0-1.5,0.2-2.1,0.5C124.9,13.3,124.4,13.8,124.1,14.4z"/>
</g>
<g>
	<path fill="#ffffff" d="M2,8.1v16.9C2,28.8,5.2,32,9.1,32h24V21.7l-20.2,6.5v0h0l0,0V13.9l14.9-4.8l5.3-1.7V1h-24C5.2,1,2,4.2,2,8.1z"
		/>
		<mask maskUnits="userSpaceOnUse" x="7.3" y="4" width="20.5" height="19.6">
		<g>
			<path id="_x31_ouf04k1xa_00000055701188672100778710000012031694742173204643_" d="M2,32h174V1H2V32z"/>
		</g>
	</mask>
	<path d="M27.8,4v5.2L12.9,14v7.8l-5.6,1.8V10.5L27.8,4z" fill="#FBC817"/>
</g>
</svg>