<svg xmlns="http://www.w3.org/2000/svg" width="16" height="16" viewBox="0 0 16 16">
    <defs>
        <clipPath id="9frk6pjh8a">
            <path data-name="사각형 274" style="fill:none" d="M0 0h13.837v12H0z"/>
        </clipPath>
        <clipPath id="gl0islrxfb">
            <path data-name="패스 124" d="M0 0v12h11L8 8.413 6 6l6 1V0z" style="fill:none"/>
        </clipPath>
    </defs>
    <path data-name="사각형 119" style="fill:none" d="M0 0h16v16H0z"/>
    <g data-name="그룹 204">
        <g data-name="그룹 201">
            <g data-name="그룹 200" style="clip-path:url(#9frk6pjh8a)" transform="translate(1 2)">
                <path data-name="패스 122" d="m9.1 5.117 2.281 1.735 1.7-2.122" style="stroke:#002053;stroke-linecap:round;stroke-linejoin:round;stroke-width:1.5px;fill:none"/>
            </g>
        </g>
        <g data-name="그룹 203">
            <g data-name="그룹 202" style="clip-path:url(#gl0islrxfb)" transform="translate(1 2)">
                <path data-name="패스 123" d="M6 1.5A4.5 4.5 0 1 1 1.5 6 4.505 4.505 0 0 1 6 1.5M6 0a6 6 0 1 0 6 6 6 6 0 0 0-6-6" style="fill:#002053"/>
            </g>
        </g>
    </g>
</svg>
