<svg xmlns="http://www.w3.org/2000/svg" width="152" height="32" viewBox="0 0 152 32">
    <defs>
        <clipPath id="97cmxaxjga">
            <path data-name="사각형 12" style="fill:#fff" d="M0 0h24v24H0z"/>
        </clipPath>
    </defs>
    <path data-name="사각형 13" style="fill:none" d="M0 0h32v32H0z"/>
    <g data-name="그룹 4" transform="translate(4 4)" style="clip-path:url(#97cmxaxjga)">
        <path data-name="패스 1" d="M7.495 39.729a.849.849 0 0 0-.848.852v4.368a3.123 3.123 0 0 1-3.124 3.123h-.4A3.123 3.123 0 0 1 0 44.948V37a3.667 3.667 0 0 1 3.72-3.72h12.69a3.125 3.125 0 0 1 3.123 3.122v.2a3.122 3.122 0 0 1-3.123 3.122z" transform="translate(1 -24.843)" style="fill:#fff"/>
        <path data-name="패스 2" d="M3.161 0h14.783A3.11 3.11 0 0 1 21.1 3.1v.2a3.159 3.159 0 0 1-3.158 3.161H3.161A3.161 3.161 0 0 1 0 3.3v-.222A3.092 3.092 0 0 1 3.161 0" transform="translate(1)" style="fill:#fff"/>
    </g>
    <text data-name="Fashion ERP" transform="translate(48 23)" style="font-size:18px;font-family:Pretendard-Bold,Pretendard;font-weight:700;fill:#fff"><tspan x="0" y="0">Fashion ERP</tspan></text>
</svg>
