<svg viewBox="0 0 16 16" width="16" height="16" xmlns="http://www.w3.org/2000/svg">
  <path d="M12.5,4H5.9C5.7,2.9,4.7,2,3.5,2C2.1,2,1,3.1,1,4.5S2.1,7,3.5,7c1.2,0,2.2-0.9,2.4-2h6.6C12.8,5,13,4.8,13,4.5
	S12.8,4,12.5,4z M3.5,6C2.7,6,2,5.3,2,4.5S2.7,3,3.5,3S5,3.7,5,4.5S4.3,6,3.5,6z"/>
<path d="M11.5,8c-1.2,0-2.2,0.9-2.4,2H2.5C2.2,10,2,10.2,2,10.5S2.2,11,2.5,11h6.6c0.2,1.1,1.2,2,2.4,2
	c1.4,0,2.5-1.1,2.5-2.5S12.9,8,11.5,8z M11.5,12c-0.8,0-1.5-0.7-1.5-1.5S10.7,9,11.5,9S13,9.7,13,10.5S12.3,12,11.5,12z"/>
</svg>
