<svg viewBox="0 0 16 16" width="16" height="16" xmlns="http://www.w3.org/2000/svg">
    <path d="M5.834 10.566a.8.8 0 0 0 1.132-1.132l-1.132 1.132zM4.8 8.4l-.566-.566a.8.8 0 0 0 0 1.132L4.8 8.4zm2.166-1.034a.8.8 0 0 0-1.132-1.132l1.132 1.132zm0 2.068-1.6-1.6-1.132 1.132 1.6 1.6 1.132-1.132zm-1.6-.468 1.6-1.6-1.132-1.132-1.6 1.6 1.132 1.132zM10.166 6.234a.8.8 0 0 0-1.132 1.132l1.132-1.132zM11.2 8.4l.566.566a.8.8 0 0 0 0-1.132L11.2 8.4zM9.034 9.434a.8.8 0 0 0 1.132 1.132L9.034 9.434zm0-2.068 1.6 1.6 1.132-1.132-1.6-1.6-1.132 1.132zm1.6.468-1.6 1.6 1.132 1.132 1.6-1.6-1.132-1.132z"/>
    <path d="M2 1.957h12v1.061H2z"/>
    <path d="M13 1a2 2 0 0 1 2 2v10a2 2 0 0 1-2 2H3a2 2 0 0 1-2-2V3a2 2 0 0 1 2-2h10zm0 1H3a1 1 0 0 0-.993.883L2 3v10a1 1 0 0 0 .883.993L3 14h10a1 1 0 0 0 .993-.883L14 13V3a1 1 0 0 0-.883-.993L13 2z" />
</svg>
