<svg width="16" height="16" viewBox="0 0 16 16" xmlns="http://www.w3.org/2000/svg">
    <path d="M7.629.582c-.173.08-.256.149-.379.356l-.1.185-.13.25-1.645 3.262-3.964.57-.21.037c-.238.05-.327.106-.459.241a.859.859 0 0 0-.234.712c.025.19.064.288.229.466l.148.152 2.863 2.732-.652 3.727-.039.242c-.043.312-.022.419.083.608.127.228.35.386.607.433.185.034.291.027.513-.07l.192-.09.253-.129L8 12.57l3.43 1.767.22.108c.287.136.395.149.603.111a.871.871 0 0 0 .607-.433c.105-.189.126-.296.083-.608l-.039-.242-.653-3.727 2.864-2.732.148-.151c.165-.18.204-.277.23-.467a.859.859 0 0 0-.235-.712c-.132-.135-.221-.191-.46-.241l-.209-.038-3.965-.569-1.756-3.48-.117-.21L8.687.85l-.07-.083a.772.772 0 0 0-.246-.185.879.879 0 0 0-.742 0zm.285 1.242L8 1.654l1.773 3.513.048.078.028.04.058.068a.873.873 0 0 0 .523.264l3.904.559-2.742 2.617c-.144.138-.181.177-.239.278a.858.858 0 0 0-.108.505l.029.18.647 3.706-.168-.085-3.335-1.716-.121-.055a.668.668 0 0 0-.052-.017l-.08-.019a.877.877 0 0 0-.22-.014l-.134.02a.784.784 0 0 0-.108.03l-.121.055-3.504 1.801.648-3.706c.035-.196.041-.25.027-.366a.858.858 0 0 0-.215-.469l-.13-.128-2.743-2.617 3.802-.543c.198-.029.25-.04.355-.087a.871.871 0 0 0 .271-.193l.058-.068.053-.078.05-.091 1.66-3.292z" fill="#FFF" fill-rule="nonzero" opacity=".8"/>
</svg>
