<svg width="20" height="20" viewBox="0 0 20 20" xmlns="http://www.w3.org/2000/svg">
    <g transform="translate(1.983 2)" fill="#1A1A1A" fill-rule="evenodd">
        <rect x="6.017" y="7" width="10" height="1" rx=".5"/>
        <path d="M9.508 0a1.5 1.5 0 0 1 1.493 1.356l.007.144v1.048a.5.5 0 0 1-.992.09l-.008-.09V1.5a.5.5 0 0 0-.41-.492L9.508 1H1.5a.5.5 0 0 0-.492.41L1 1.5v12.029a.5.5 0 0 0 .41.492l.09.008h8.008a.5.5 0 0 0 .492-.41l.008-.09V12.5a.5.5 0 0 1 .992-.09l.008.09v1.029a1.5 1.5 0 0 1-1.356 1.493l-.144.007H1.5a1.5 1.5 0 0 1-1.493-1.356L0 13.53V1.5A1.5 1.5 0 0 1 1.356.007L1.5 0h8.008zM12.356 3.838a.5.5 0 0 1 .638-.057l.069.058 3.308 3.323a.5.5 0 0 1 .036.665l-.066.068-3.5 2.986a.5.5 0 0 1-.712-.697l.063-.064 3.089-2.636-2.927-2.939a.5.5 0 0 1-.056-.638l.058-.07z" fill-rule="nonzero"/>
    </g>
</svg>
