<svg width="24" height="24" viewBox="0 0 24 24" xmlns="http://www.w3.org/2000/svg">
    <g fill="#1A1A1A" fill-rule="nonzero">
        <path d="M17.638 5.645a.5.5 0 0 1 .765.637l-.057.07L12.706 12l5.64 5.645a.5.5 0 0 1 .057.637l-.058.07a.5.5 0 0 1-.638.057l-.069-.058-5.992-5.997a.5.5 0 0 1-.058-.637l.058-.07 5.992-6.002z"/>
        <path d="M6.354 5.645a.5.5 0 0 0-.766.637l.058.07L11.286 12l-5.64 5.645a.5.5 0 0 0-.057.637l.058.07a.5.5 0 0 0 .637.057l.07-.058 5.992-5.997a.5.5 0 0 0 .057-.637l-.057-.07-5.992-6.002z"/>
    </g>
</svg>
