<svg xmlns="http://www.w3.org/2000/svg" width="24" height="24" viewBox="0 0 24 24">
    <defs>
        <clipPath id="mr0aplf9ea">
            <path data-name="사각형 193" style="fill:none" d="M0 0h22v22H0z"/>
        </clipPath>
    </defs>
    <path data-name="사각형 38" style="fill:none" d="M0 0h24v24H0z"/>
    <g data-name="그룹 139" transform="translate(1 1)" style="clip-path:url(#mr0aplf9ea)">
        <path data-name="패스 102" d="M19.889 12.588v5.275A2.886 2.886 0 0 1 17.349 21H4.651a2.886 2.886 0 0 1-2.54-3.137v-5.275" style="stroke-linejoin:round;stroke:#fff;stroke-linecap:round;stroke-width:2px;fill:none"/>
        <path data-name="패스 103" d="M9 12.044H3a2 2 0 0 1-2-2V6.956a2 2 0 0 1 2-2h16a2 2 0 0 1 2 2v3.088a2 2 0 0 1-2 2h-5" style="stroke-linejoin:round;stroke:#fff;stroke-linecap:round;stroke-width:2px;fill:none"/>
        <path data-name="패스 104" d="M14.333 4.529v-.784A2.526 2.526 0 0 0 12.111 1H9.889a2.526 2.526 0 0 0-2.223 2.745v.784" style="stroke-linejoin:round;stroke:#fff;stroke-linecap:round;stroke-width:2px;fill:none"/>
        <rect data-name="사각형 192" width="4" height="4" rx="1" transform="translate(9 9.5)" style="stroke-miterlimit:10;stroke:#fff;stroke-linecap:round;stroke-width:2px;fill:none"/>
    </g>
</svg>
