<svg xmlns="http://www.w3.org/2000/svg" width="24" height="24" viewBox="0 0 24 24">
    <defs>
        <clipPath id="ngw8l99tja">
            <path data-name="사각형 185" style="fill:none" d="M0 0h22v22H0z"/>
        </clipPath>
    </defs>
    <path data-name="사각형 8" style="fill:none" d="M0 0h24v24H0z"/>
    <g data-name="그룹 133" transform="translate(1 1)" style="clip-path:url(#ngw8l99tja)">
        <path data-name="패스 91" d="M8.5 21v-3.9a2.5 2.5 0 0 1 5 0V21" style="stroke:#fff;stroke-linecap:round;stroke-linejoin:round;stroke-width:2px;fill:none"/>
        <path data-name="패스 92" d="M19.333 11.4v6.4A3.269 3.269 0 0 1 16 21H6a3.269 3.269 0 0 1-3.334-3.2v-6.4" style="stroke:#fff;stroke-linecap:round;stroke-linejoin:round;stroke-width:2px;fill:none"/>
        <path data-name="패스 93" d="M1 4.84v2.717A2.866 2.866 0 0 0 3.366 10.6 2.686 2.686 0 0 0 6 7.72a2.71 2.71 0 0 0 2.5 2.88A2.71 2.71 0 0 0 11 7.72a2.71 2.71 0 0 0 2.5 2.88A2.71 2.71 0 0 0 16 7.72a2.686 2.686 0 0 0 2.634 2.88A2.866 2.866 0 0 0 21 7.557V4.84A3.613 3.613 0 0 0 17.667 1H4.333A3.613 3.613 0 0 0 1 4.84z" style="stroke:#fff;stroke-linecap:round;stroke-linejoin:round;stroke-width:2px;fill:none"/>
    </g>
</svg>
