<svg xmlns="http://www.w3.org/2000/svg" width="20" height="20" viewBox="0 0 20 20">
    <defs>
        <clipPath id="79uzau7m2a">
            <path data-name="사각형 252" style="fill:none" d="M0 0h14.531v18H0z"/>
        </clipPath>
    </defs>
    <path data-name="사각형 156" style="fill:none" d="M0 0h20v20H0z"/>
    <g data-name="그룹 174" transform="translate(3 1)" style="clip-path:url(#79uzau7m2a)">
        <path data-name="패스 114" d="M11.526 13H3.005a2 2 0 0 1-1.666-3.111l1.383-2.075a2 2 0 0 0 .234-1.743l-.813-2.437A2 2 0 0 1 4.042 1h6.447a2 2 0 0 1 1.9 2.634l-.812 2.437a2 2 0 0 0 .233 1.743l1.383 2.075A2 2 0 0 1 11.526 13z" style="stroke:#fff;stroke-miterlimit:10;stroke-width:2px;fill:none"/>
        <path data-name="선 36" transform="translate(7.265 13)" style="stroke-linecap:round;stroke:#fff;stroke-miterlimit:10;stroke-width:2px;fill:none" d="M0 0v4"/>
    </g>
</svg>
