<svg xmlns="http://www.w3.org/2000/svg" width="32" height="32" viewBox="0 0 32 32">
    <defs>
        <clipPath id="c5bp8zeqia">
            <path data-name="사각형 79" transform="translate(-2.287)" style="fill:none" d="M0 0h24v24H0z"/>
        </clipPath>
    </defs>
    <path data-name="사각형 78" style="fill:none" d="M0 0h32v32H0z"/>
    <g data-name="그룹 63" transform="translate(6.287 4)" style="clip-path:url(#c5bp8zeqia)">
        <path data-name="패스 30" d="M19 19.051H1l1.021-1.29a3.623 3.623 0 0 0 .779-2.244V8.22a7.2 7.2 0 1 1 14.4 0v7.3a3.623 3.623 0 0 0 .779 2.244z" style="stroke:#fff;stroke-linecap:round;stroke-linejoin:round;stroke-width:2px;fill:none"/>
        <path data-name="패스 31" d="M13.375 19.615a3.375 3.375 0 1 1-6.75 0" style="stroke:#fff;stroke-linecap:round;stroke-linejoin:round;stroke-width:2px;fill:none"/>
    </g>
    <g data-name="타원 39" transform="translate(21 4)" style="fill:#e1002b;stroke:#222427;stroke-width:3px">
        <circle cx="2.5" cy="2.5" r="2.5" style="stroke:none"/>
        <circle cx="2.5" cy="2.5" r="4" style="fill:none"/>
    </g>
</svg>
