<svg xmlns="http://www.w3.org/2000/svg" width="32" height="32" viewBox="0 0 32 32">
    <defs>
        <clipPath id="nfo73acgia">
            <path data-name="사각형 232" style="fill:none" d="M0 0h24v22H0z"/>
        </clipPath>
    </defs>
    <path data-name="사각형 75" style="fill:none" d="M0 0h32v32H0z"/>
    <g data-name="그룹 159" transform="translate(4 5)" style="clip-path:url(#nfo73acgia)">
        <path data-name="패스 105" d="M12.224 2.273v5.072a1.239 1.239 0 0 0 1.2 1.274H21.8A1.239 1.239 0 0 0 23 7.345V4.82a1.239 1.239 0 0 0-1.2-1.274h-2.988a1.238 1.238 0 0 1-1.2-1.273A1.239 1.239 0 0 0 16.411 1h-2.986a1.239 1.239 0 0 0-1.201 1.273z" style="stroke:#fff;stroke-miterlimit:10;stroke-width:2px;fill:none"/>
        <path data-name="패스 106" d="M12.224 14.654v5.072A1.239 1.239 0 0 0 13.425 21H21.8a1.239 1.239 0 0 0 1.2-1.274V17.2a1.239 1.239 0 0 0-1.2-1.274h-2.988a1.238 1.238 0 0 1-1.2-1.273 1.239 1.239 0 0 0-1.2-1.273h-2.987a1.239 1.239 0 0 0-1.201 1.274z" style="stroke:#fff;stroke-miterlimit:10;stroke-width:2px;fill:none"/>
        <path data-name="패스 107" d="M1 1v13.333a3.706 3.706 0 0 0 3.592 3.81h2.694" style="stroke-linecap:round;stroke:#fff;stroke-miterlimit:10;stroke-width:2px;fill:none"/>
        <path data-name="선 34" transform="translate(1 4.955)" style="stroke-linecap:round;stroke:#fff;stroke-miterlimit:10;stroke-width:2px;fill:none" d="M6.286 0H0"/>
    </g>
</svg>
