<svg xmlns="http://www.w3.org/2000/svg" width="20" height="20" viewBox="0 0 20 20">
    <defs>
        <clipPath id="8j7atq9x2a">
            <path data-name="사각형 155" transform="translate(.333 .333)" style="fill:none" d="M0 0h20v20H0z"/>
        </clipPath>
    </defs>
    <path data-name="사각형 156" style="fill:none" d="M0 0h20v20H0z"/>
    <g data-name="그룹 111" transform="translate(-.333 -.333)" style="clip-path:url(#8j7atq9x2a)">
        <path data-name="패스 70" d="m10.542 2 1.139 2.4a1.725 1.725 0 0 0 1.3.978l2.549.385a1.808 1.808 0 0 1 .953 3.051l-1.844 1.87a1.832 1.832 0 0 0-.5 1.583l.436 2.639a1.735 1.735 0 0 1-2.5 1.886L9.8 15.545a1.662 1.662 0 0 0-1.6 0l-2.28 1.246a1.735 1.735 0 0 1-2.5-1.886l.436-2.639a1.832 1.832 0 0 0-.5-1.583l-1.835-1.87a1.808 1.808 0 0 1 .953-3.051l2.549-.385a1.725 1.725 0 0 0 1.3-.978L7.457 2a1.692 1.692 0 0 1 3.085 0z" transform="translate(1.334 1.332)" style="stroke:#fff;stroke-miterlimit:10;stroke-width:2px;fill:none"/>
    </g>
</svg>
