<svg xmlns="http://www.w3.org/2000/svg" width="16" height="16" viewBox="0 0 16 16">
    <path data-name="사각형 447" style="fill:#fff" d="M0 0h16v16H0z"/>
    <g data-name="그룹 339">
        <path data-name="패스 160" d="M13 3.337H2A1.462 1.462 0 0 1 .5 1.919 1.462 1.462 0 0 1 2 .5h11a1.462 1.462 0 0 1 1.5 1.419A1.462 1.462 0 0 1 13 3.337z" transform="translate(.421 1.5)" style="fill:none;stroke:#002053;stroke-linecap:round;stroke-linejoin:round"/>
        <path data-name="패스 161" d="M.956 2.7 4.62 6.881a.912.912 0 0 1 .266.639v3.8a.991.991 0 0 0 1.21.926l3.072-.6a.963.963 0 0 0 .8-.926v-3.2a.91.91 0 0 1 .267-.641l3.7-4.041" transform="translate(.398 1.732)" style="fill:none;stroke:#002053;stroke-linecap:round;stroke-linejoin:round"/>
    </g>
</svg>
