<svg xmlns="http://www.w3.org/2000/svg" width="40" height="40" viewBox="0 0 40 40">
    <defs>
        <clipPath id="47zry63gva">
            <path data-name="사각형 729" style="fill:none" d="M0 0h32.043v34H0z"/>
        </clipPath>
    </defs>
    <path data-name="사각형 726" style="fill:none" d="M0 0h40v40H0z"/>
    <g data-name="그룹 444" transform="translate(4 3)" style="clip-path:url(#47zry63gva)">
        <path data-name="패스 196" d="M27 33H5a4 4 0 0 1-4-4V13a4 4 0 0 1 4-4h22a4 4 0 0 1 4 4v16a4 4 0 0 1-4 4" style="fill:#0b4599"/>
        <rect data-name="사각형 727" width="30" height="24" rx="4" transform="translate(1 9)" style="stroke-linecap:round;stroke-miterlimit:10;stroke-width:2px;stroke:#000111;fill:none"/>
        <path data-name="패스 197" d="M25 25H7a2 2 0 0 1-2-2V3a2 2 0 0 1 2-2h18a2 2 0 0 1 2 2v20a2 2 0 0 1-2 2" style="fill:#fff"/>
        <rect data-name="사각형 728" width="22" height="24" rx="2" transform="translate(5 1)" style="stroke-linecap:round;stroke-miterlimit:10;stroke-width:2px;stroke:#000111;fill:none"/>
        <path data-name="패스 198" d="m1 16.8 14.892 8L31 16.8v12.63a3.761 3.761 0 0 1-3.761 3.761H4.761A3.761 3.761 0 0 1 1 29.434z" style="fill:#0752c9"/>
        <path data-name="패스 199" d="m1.043 16.609 14.892 8 15.108-8V29a4 4 0 0 1-4 4h-22a4 4 0 0 1-4-4z" style="stroke-linecap:round;stroke-miterlimit:10;stroke-width:2px;stroke:#000111;fill:none"/>
        <path data-name="선 58" transform="translate(9.869 5.609)" style="stroke-linecap:round;stroke-miterlimit:10;stroke-width:2px;stroke:#000111;fill:none" d="M0 0h6.174"/>
        <path data-name="선 59" transform="translate(9.869 15.609)" style="stroke:#e1002b;stroke-linecap:round;stroke-miterlimit:10;stroke-width:2px;fill:none" d="M0 0h6.174"/>
        <path data-name="선 60" transform="translate(9.869 10.609)" style="stroke-linecap:round;stroke-miterlimit:10;stroke-width:2px;stroke:#000111;fill:none" d="M0 0h12.174"/>
    </g>
</svg>
