<svg xmlns="http://www.w3.org/2000/svg" width="20" height="20" viewBox="0 0 20 20">
    <defs>
        <clipPath id="92v46nc2sa">
            <path data-name="사각형 158" transform="translate(.333 .333)" style="fill:none" d="M0 0h20v20H0z"/>
        </clipPath>
    </defs>
    <path data-name="사각형 156" style="fill:none" d="M0 0h20v20H0z"/>
    <g data-name="그룹 119" transform="translate(-.333 -.333)" style="clip-path:url(#92v46nc2sa)">
        <circle data-name="타원 26" cx="8.016" cy="8.016" r="8.016" transform="translate(2.318 2.317)" style="stroke:#fff;stroke-miterlimit:10;stroke-width:2px;fill:none"/>
        <path data-name="패스 73" d="M9.82 11.571a.9.9 0 0 1-.88-1.083 1.865 1.865 0 0 1 .954-1.248c.529-.336.938-.673.938-1.2a.873.873 0 0 0-.938-.866.977.977 0 0 0-.873.509.955.955 0 0 1-.862.453.914.914 0 0 1-.8-1.369 2.849 2.849 0 0 1 2.548-1.194c1.743 0 3.006.841 3.006 2.368a2.358 2.358 0 0 1-1.347 2.116 1.722 1.722 0 0 0-.884.945.883.883 0 0 1-.862.569zm-1.152 1.852a1.068 1.068 0 0 1 1.082-1.07 1.082 1.082 0 1 1 0 2.164 1.072 1.072 0 0 1-1.082-1.094" transform="translate(.59 -.104)" style="fill:#fff"/>
    </g>
</svg>
