<svg width="20" height="20" viewBox="0 0 20 20" xmlns="http://www.w3.org/2000/svg">
    <g transform="translate(1 1)" fill="#7F7F8C" fill-rule="evenodd">
        <rect x="8" y="8.25" width="2" height="5" rx="1"/>
        <path d="M16 4.25a2 2 0 0 1 2 2v9a2 2 0 0 1-2 2H2a2 2 0 0 1-2-2v-9a2 2 0 0 1 2-2h14zm0 1H2a1 1 0 0 0-.993.883L1 6.25v9a1 1 0 0 0 .883.993L2 16.25h14a1 1 0 0 0 .993-.883L17 15.25v-9a1 1 0 0 0-.883-.993L16 5.25z" fill-rule="nonzero"/>
        <path d="M9-.5A4.5 4.5 0 0 1 13.5 4a.5.5 0 1 1-1 0 3.5 3.5 0 0 0-7 0 .5.5 0 0 1-1 0A4.5 4.5 0 0 1 9-.5z" fill-rule="nonzero"/>
    </g>
</svg>
