<svg viewBox="0 0 16 16" width="16" height="16" xmlns="http://www.w3.org/2000/svg">
    <path d="M10.9,10.9L8.7,5.4C8.5,5.1,8.3,5,8,5C7.7,5,7.5,5.1,7.3,5.4l-2.3,5.5c-0.2,0.4,0,0.8,0.3,1
	c0.3,0.2,0.7,0,0.9-0.4l0.3-0.8h2.8l0.3,0.8c0.2,0.4,0.6,0.5,0.9,0.4S11.1,11.3,10.9,10.9z M7.2,9.3L8,7.4v0l0.8,1.8H7.2z"/>
    <path d="M2 1.957h12v1.061H2z"/>
    <path d="M13 1a2 2 0 0 1 2 2v10a2 2 0 0 1-2 2H3a2 2 0 0 1-2-2V3a2 2 0 0 1 2-2h10zm0 1H3a1 1 0 0 0-.993.883L2 3v10a1 1 0 0 0 .883.993L3 14h10a1 1 0 0 0 .993-.883L14 13V3a1 1 0 0 0-.883-.993L13 2z" />
</svg>
