<svg width="24" height="24" viewBox="0 0 24 24" xmlns="http://www.w3.org/2000/svg">
    <g fill="#1A1A1A" fill-rule="evenodd">
        <path d="M15.889 7.333v-.777c0-.86-.697-1.556-1.556-1.556H9.667c-.86 0-1.556.696-1.556 1.556v.777H5.778a.778.778 0 0 0 0 1.556h.778v8.555a2.333 2.333 0 0 0 2.333 2.334h6.222a2.333 2.333 0 0 0 2.333-2.334V8.89h.778a.778.778 0 1 0 0-1.556H15.89zm-1.556-.777H9.667v.777h4.666v-.777zm1.556 2.333H8.11v8.555c0 .43.348.778.778.778h6.222c.43 0 .778-.348.778-.778V8.89z" stroke="#FFF" stroke-width=".6"/>
        <g fill-rule="nonzero">
            <path d="M10.5 11a.5.5 0 0 1 .5.5v4a.5.5 0 0 1-1 0v-4a.5.5 0 0 1 .5-.5zM13.5 11a.5.5 0 0 1 .5.5v4a.5.5 0 0 1-1 0v-4a.5.5 0 0 1 .5-.5z"/>
        </g>
    </g>
</svg>
