<svg viewBox="0 0 16 16" width="16" height="16" xmlns="http://www.w3.org/2000/svg">
    <path d="M10.7,7.5c-0.3-0.3-0.7-0.3-1,0L7.2,9.9l-1-1C6,8.7,5.5,8.7,5.2,9C5,9.3,5,9.7,5.2,10l1.5,1.5
        c0.3,0.3,0.8,0.3,1.1,0l3-3C11.1,8.2,11,7.8,10.7,7.5z"/>
    <path d="M14.6,6.7L8.8,1.8C8.6,1.6,8.3,1.5,8,1.5c-0.3,0-0.6,0.1-0.8,0.3L1.4,6.6C1.2,6.9,1,7.2,1,7.6v6.2
        C1,14.5,1.6,15,2.3,15h11.5c0.7,0,1.2-0.6,1.2-1.2V7.6C15,7.2,14.8,6.9,14.6,6.7z M14,13.8c0,0.1-0.1,0.2-0.2,0.2H2.3
        C2.1,14,2,13.9,2,13.8V7.6c0-0.1,0-0.1,0.1-0.2l5.7-4.8c0,0,0.1-0.1,0.2-0.1c0.1,0,0.1,0,0.2,0.1l5.8,4.8c0,0,0.1,0.1,0.1,0.2V13.8z
        "/>
</svg>
