<svg viewBox="0 0 16 16" width="16" height="16" xmlns="http://www.w3.org/2000/svg">
<path d="M13.1,2H2.9C1.9,2,1,2.9,1,4.1v2.8C1,8.1,1.9,9,2.9,9h10.2C14.1,9,15,8.1,15,6.9V4.1C15,2.9,14.1,2,13.1,2z
	 M14,7.2C14,7.6,13.7,8,13.3,8H2.7C2.3,8,2,7.6,2,7.2V3.8C2,3.4,2.3,3,2.7,3h10.7C13.7,3,14,3.4,14,3.8V7.2z"/>
<path d="M5,12.5C5,12.2,5.3,12,5.6,12h4.7c0.3,0,0.6,0.2,0.6,0.5S10.6,13,10.2,13H5.6C5.3,13,5,12.8,5,12.5z"/>
<path d="M3.6,10C3.3,10,3,10.2,3,10.5S3.3,11,3.6,11h8.7c0.3,0,0.6-0.2,0.6-0.5S12.6,10,12.3,10H3.6z"/>
</svg>
