<svg width="16" height="16" viewBox="0 0 16 16" xmlns="http://www.w3.org/2000/svg">
<path d="M13.9,14.1C13.9,14.1,13.9,14.1,13.9,14.1l-2.3-4.7C11.5,9.1,11.3,9,11,9c-0.3,0-0.5,0.1-0.7,0.4l-2.3,4.7
	c-0.2,0.3,0,0.7,0.3,0.9c0,0,0,0,0,0c0.3,0.2,0.7,0,0.9-0.3v0l0.3-0.7h2.8l0.3,0.7c0.2,0.3,0.6,0.5,0.9,0.3
	C13.9,14.8,14.1,14.4,13.9,14.1z M10.1,12.8L10.1,12.8L11,11l0.9,1.8H10.1z"/>
<path d="M6.4,12C6.7,12,7,12.2,7,12.5c0,0.2-0.2,0.4-0.5,0.5l-0.1,0H1.6C1.3,13,1,12.8,1,12.5c0-0.2,0.2-0.4,0.5-0.5
	l0.1,0H6.4z"/>
<path d="M12.5,7C12.8,7,13,7.2,13,7.5c0,0.2-0.2,0.4-0.4,0.5l-0.1,0H1.5C1.2,8,1,7.8,1,7.5C1,7.3,1.2,7.1,1.4,7l0.1,0
	H12.5z"/>
<path d="M12.5,2C12.8,2,13,2.2,13,2.5C13,2.7,12.8,3,12.6,3l-0.1,0H1.5C1.2,3,1,2.8,1,2.5C1,2.3,1.2,2,1.4,2l0.1,0H12.5
	z"/>
</svg>
