<svg viewBox="0 0 16 16" width="16" height="16" xmlns="http://www.w3.org/2000/svg">
    <path d="M10.8,5.2c-0.3-0.3-0.8-0.3-1,0c0,0,0,0,0,0L7.3,7.7l-1-1l0,0c-0.3-0.3-0.8-0.3-1,0c0,0,0,0,0,0
        c-0.3,0.3-0.3,0.8,0,1.1l0,0l1.5,1.5c0,0,0.3-0.3,0.5-0.5l0,0L6.7,9.4c0.3,0.3,0.8,0.3,1.1,0l3-3.1C11.1,6,11.1,5.5,10.8,5.2z"/>
    <path d="M14,1H2C1.4,1,1,1.4,1,2v5c0.1,1.9,0.7,3.6,2,5c1.2,1.3,2.8,2.3,4.7,3c0.2,0.1,0.4,0.1,0.6,0l0.4-0.1
        c1.7-0.6,3.1-1.6,4.3-2.9c1.3-1.4,2-3.1,2-5V2C15,1.4,14.6,1,14,1z M14,7l0,0.3c-0.1,1.5-0.6,2.8-1.7,4c-1.1,1.2-2.5,2.1-4.3,2.7
        l-0.4-0.1c-1.6-0.6-2.9-1.5-3.9-2.6C2.6,10.1,2.1,8.7,2,7V2h12V7z"/>
</svg>
