<svg width="16" height="16" viewBox="0 0 16 16" xmlns="http://www.w3.org/2000/svg">
    <path  d="M6.4,12C6.7,12,7,12.2,7,12.5c0,0.2-0.2,0.4-0.5,0.5l-0.1,0H1.6C1.3,13,1,12.8,1,12.5c0-0.2,0.2-0.4,0.5-0.5
        l0.1,0H6.4z"/>
    <path d="M14.8,10.3C14.8,10.3,14.8,10.3,14.8,10.3c-0.4-0.4-0.9-0.4-1.3,0l0,0L10.6,13l-1.1-1.1
            c-0.3-0.3-0.9-0.3-1.2,0c-0.3,0.3-0.3,0.8,0,1.1c0,0,0,0,0,0l1.8,1.7c0,0,0.3-0.3,0.6-0.6l0.6,0.6l3.5-3.3l0,0
            C15.1,11.1,15.1,10.6,14.8,10.3z"/>
    <path d="M10.6,14.2L10,14.8c0.3,0.3,0.9,0.3,1.2,0L10.6,14.2L10.6,14.2z"/>
    <path d="M12.5,7C12.8,7,13,7.2,13,7.5c0,0.2-0.2,0.4-0.4,0.5l-0.1,0H1.5C1.2,8,1,7.8,1,7.5C1,7.3,1.2,7.1,1.4,7l0.1,0
        H12.5z"/>
    <path d="M12.5,2C12.8,2,13,2.2,13,2.5C13,2.7,12.8,3,12.6,3l-0.1,0H1.5C1.2,3,1,2.8,1,2.5C1,2.3,1.2,2,1.4,2l0.1,0H12.5
        z"/>
</svg>
