<svg xmlns="http://www.w3.org/2000/svg" width="110" height="36" viewBox="0 0 110 36">
    <defs>
        <clipPath id="d4n6geugaa">
            <path data-name="사각형 683" style="fill:none" d="M0 0h108.552v36H0z"/>
        </clipPath>
    </defs>
    <path data-name="사각형 684" style="fill:none" d="M0 0h110v36H0z"/>
    <g data-name="그룹 422">
        <g data-name="그룹 421" style="clip-path:url(#d4n6geugaa)">
            <path data-name="패스 167" d="M90.946 31.188V4.8A4.714 4.714 0 0 1 95.634 0h.51a4.785 4.785 0 0 1 4.769 4.8v26.388a4.788 4.788 0 0 1-4.773 4.8h-.54a4.685 4.685 0 0 1-4.65-4.8" transform="translate(-56.119)" style="fill:#081930"/>
            <path data-name="패스 168" d="m173.605 3.172 10.6 17.365c2.29 3.751 2.819 4.73 2.819 7.489a7.9 7.9 0 0 1-7.4 7.7H165.3a4.48 4.48 0 0 1-4.716-4.445v-.3a4.729 4.729 0 0 1 4.716-4.746h8.776c.553 0 .892-.074 1.041-.419a.947.947 0 0 0-.142-1.028l-6.251-10.1c-.1-.168-.218-.4-.411-.4s-.34.233-.427.415l-9.545 16.5c-1.49 2.615-3.235 4.531-5.842 4.531h-18.36a7.491 7.491 0 0 1-6.974-7.026V4.837a4.733 4.733 0 0 1 4.712-4.75h.6a4.739 4.739 0 0 1 4.72 4.75v19.5a1.247 1.247 0 0 0 1.285 1.288h9.122a3.536 3.536 0 0 0 3.4-1.987l12.27-20.467a5.921 5.921 0 0 1 5.249-2.993 5.688 5.688 0 0 1 5.082 2.993" transform="translate(-78.469 -.053)" style="fill:#081930"/>
            <path data-name="패스 169" d="M11.317 44.862a1.286 1.286 0 0 0-1.28 1.295v6.641a4.732 4.732 0 0 1-4.718 4.748h-.6A4.732 4.732 0 0 1 0 52.8V40.72a5.557 5.557 0 0 1 5.618-5.656h19.164a4.735 4.735 0 0 1 4.718 4.747v.3a4.731 4.731 0 0 1-4.716 4.746z" transform="translate(0 -21.545)" style="fill:#081930"/>
            <path data-name="패스 170" d="M4.773 1.779H27.1a4.711 4.711 0 0 1 4.768 4.713v.3A4.786 4.786 0 0 1 27.1 11.6H4.773A4.789 4.789 0 0 1 0 6.79v-.332a4.684 4.684 0 0 1 4.773-4.679" transform="translate(0 -1.093)" style="fill:#c5001f"/>
        </g>
    </g>
</svg>
